<svg xmlns="http://www.w3.org/2000/svg" width="80" height="80" fill="none" viewBox="0 0 80 80"><rect width="80" height="80" fill="#001E26"/><path fill="#80EEC0" d="M33.0254 48.8482C33.9291 47.2792 36.1882 47.2792 37.0918 48.8482L49.7992 70.9121C50.7028 72.4811 49.5733 74.4423 47.766 74.4423H22.3512C20.5439 74.4423 19.4144 72.4811 20.318 70.9121L33.0254 48.8482Z"/><path fill="#001E26" d="M42.2429 53.3251C43.1397 51.7361 45.3818 51.736 46.2786 53.3251L56.494 71.4248C57.3908 73.0138 56.2697 75.0001 54.4761 75.0001H34.0454C32.2518 75.0001 31.1307 73.0138 32.0276 71.4248L42.2429 53.3251Z"/><path fill="#00DC82" d="M45.8498 53.8198C46.7683 52.3146 49.0043 52.3146 49.9228 53.8198L60.3774 70.9524C61.3168 72.4918 60.1786 74.4422 58.3409 74.4422H37.4317C35.594 74.4422 34.4558 72.4918 35.3952 70.9524L45.8498 53.8198Z"/><circle cx="14.286" cy="26.429" r="4.286" fill="#D6386E"/><circle cx="14.286" cy="9.286" r="4.286" fill="#D6386E"/><circle cx="31.429" cy="9.286" r="4.286" fill="#D27098"/><circle cx="48.571" cy="9.286" r="4.286" fill="#AD9EC2"/><circle cx="48.571" cy="26.429" r="4.286" fill="#AD9EC2"/><circle cx="65.714" cy="9.286" r="4.286" fill="#25FEFD"/><rect width="8.571" height="26.429" x="10" y="40" fill="#fff" rx="4.286"/><rect width="8.571" height="44.286" x="27.143" y="22.143" fill="#fff" rx="4.286"/><rect width="8.571" height="26.429" x="44.286" y="40" fill="#fff" rx="4.286"/><rect width="8.571" height="44.286" x="61.429" y="22.143" fill="#fff" rx="4.286"/></svg>