<svg xmlns="http://www.w3.org/2000/svg" xmlns:xlink="http://www.w3.org/1999/xlink" width="500" height="500" preserveAspectRatio="xMidYMid meet" version="1.0" viewBox="0 0 375 375" zoomAndPan="magnify"><g fill="#8c52ff" fill-opacity=".302"><g><g><path d="M 63 -168 L 21 -168 L 21 -42 L 63 -42 Z M 63 0 L 231 0 L 231 -42 L 63 -42 Z M 63 -168 L 231 -168 L 231 -210 L 63 -210 Z M 63 -168" transform="translate(84.663793, 310.016484)"/></g></g></g><g fill="#8c52ff" fill-opacity=".502"><g><g><path d="M 63 -168 L 21 -168 L 21 -42 L 63 -42 Z M 63 0 L 231 0 L 231 -42 L 63 -42 Z M 63 -168 L 231 -168 L 231 -210 L 63 -210 Z M 63 -168" transform="translate(71.405537, 296.758233)"/></g></g></g><g fill="#8c52ff" fill-opacity="1"><g><g><path d="M 63 -168 L 21 -168 L 21 -42 L 63 -42 Z M 63 0 L 231 0 L 231 -42 L 63 -42 Z M 63 -168 L 231 -168 L 231 -210 L 63 -210 Z M 63 -168" transform="translate(58.147287, 283.499981)"/></g></g></g></svg>