<svg xmlns="http://www.w3.org/2000/svg" xmlns:xlink="http://www.w3.org/1999/xlink" width="800" height="800" version="1.1" viewBox="0 0 800 800"><title>Group 103</title><defs><linearGradient id="linearGradient-1" x1="-256.038%" x2="344.974%" y1="50%" y2="50%"><stop offset="0%" stop-color="#FF727C"/><stop offset="50.216%" stop-color="#E2598A"/><stop offset="100%" stop-color="#0077FC"/></linearGradient><linearGradient id="linearGradient-2" x1="-256.038%" x2="344.974%" y1="50%" y2="50%"><stop offset="0%" stop-color="#FF727C"/><stop offset="50.216%" stop-color="#E2598A"/><stop offset="100%" stop-color="#0077FC"/></linearGradient><linearGradient id="linearGradient-3" x1="-256.038%" x2="344.974%" y1="50%" y2="50%"><stop offset="0%" stop-color="#FF727C"/><stop offset="50.216%" stop-color="#E2598A"/><stop offset="100%" stop-color="#0077FC"/></linearGradient><linearGradient id="linearGradient-4" x1="-47.48%" x2="149.351%" y1="50%" y2="50%"><stop offset="0%" stop-color="#50399F"/><stop offset="100%" stop-color="#FF727C"/></linearGradient></defs><g id="Icons" fill="none" fill-rule="evenodd" stroke="none" stroke-width="1"><g id="Group-103" transform="translate(0.000000, 0.000000)"><rect id="Rectangle" width="800" height="800" x="0" y="0" fill="#F8F8F8" opacity=".079" rx="110"/><g id="pdf-frame-(1)" fill-rule="nonzero" transform="translate(5.000000, 240.000000)"><g id="Group" transform="translate(216.000000, 91.000000)"><path id="Fill-5" fill="url(#linearGradient-1)" d="M123,0 L123,86.4672131 L123,87.5901639 L149.971429,87.5901639 L150.081968,27.0140845 L186.667771,27.0140845 C201.717607,27.0140845 213.918032,39.1839296 213.918032,54.1960422 L213.918032,82.8039578 C213.918032,97.8160704 201.717607,109.985916 186.667771,109.985916 L123,110.04918 L123,137 L188.667968,137 C217.570229,137 241,113.628958 241,84.7991409 L241,52.2008591 C241,23.3710422 217.570229,0 188.667968,0 L150.081968,0 L123,0 Z"/><path id="Path-2" fill="url(#linearGradient-2)" d="M0,137 L0,0 L59.2688172,0 C89.0896058,0 104,14.5983607 104,43.795082 C104,72.9918033 89.0896058,87.5901639 59.2688172,87.5901639 L45.8494624,87.5901639 L45.8494624,64.0081967 L50.3225806,64.0081967 C67.469534,64.0081967 76.0430108,57.2704918 76.0430108,43.795082 C76.0430108,30.3196721 67.469534,23.5819672 50.3225806,23.5819672 L27.9569892,23.5819672 L27.9569892,64.0081967 L27.9569892,137 L0,137 Z"/><path id="Combined-Shape" fill="url(#linearGradient-3)" d="M359,0 L359,23.5819672 L289.16092,23.5819672 L289.16092,137 L261,137 L261,0 L359,0 Z M349.988506,56.147541 L349.988506,79.7295082 L307.183908,79.7295082 L307.183908,56.147541 L349.988506,56.147541 Z"/></g><polygon id="Path" fill="url(#linearGradient-4)" points="179.77 0 76.155 161.595 179.77 320 224.155 320 120.54 161.595 224.155 0" transform="translate(150.155000, 160.000000) scale(-1, 1) rotate(-180.000000) translate(-150.155000, -160.000000)"/><polygon id="Path" fill="url(#linearGradient-4)" points="103.77 0 .155 161.595 103.77 320 148.155 320 44.54 161.595 148.155 0" transform="translate(74.155000, 160.000000) scale(-1, 1) rotate(-180.000000) translate(-74.155000, -160.000000)"/><polygon id="Path" fill="url(#linearGradient-4)" points="743.77 0 640.155 161.595 743.77 320 788.155 320 684.54 161.595 788.155 0" transform="translate(714.155000, 160.000000) rotate(180.000000) translate(-714.155000, -160.000000)"/><polygon id="Path" fill="url(#linearGradient-4)" points="666.77 0 563.155 161.595 666.77 320 711.155 320 607.54 161.595 711.155 0" transform="translate(637.155000, 160.000000) rotate(180.000000) translate(-637.155000, -160.000000)"/></g></g></g></svg>