<svg xmlns="http://www.w3.org/2000/svg" width="138mm" height="138mm" version="1.1" viewBox="0 0 138 138" xml:space="preserve"><g><rect width="1.323" height="33.856" x="40.554" y="-157.72" fill="#2bac7c" stroke-width=".131" transform="scale(-1,1)"/><path fill="#53d4a4" stroke-width=".265" d="m-26.743-122.37c0 13.725-8.6234 23.495-20.9 29.309-3.6716 1.7389-6.9217-2.6758-11.114-1.6445-2.8752 0.70729-6.59 7.0479-9.6046 7.4223-3.4798 0.43218-4.9066-8.0488-8.449-8.0602-3.3766-0.0108-8.869 8.4682-12.185 8.0544-3.0407-0.37943-6.0833-7.3362-8.9812-8.0544-2.2822-0.5656-4.4553 5.1716-6.6002 4.3959-14.915-5.3942-25.99-15.869-25.99-31.423z"/><g stroke-width=".219"><rect width="27.781" height="15.875" x="-123.63" y="-138.25" fill="#ff8633"/><path fill="#ff5149" d="m-95.878-138.25h27.781v15.875h-27.781z"/><rect width="27.781" height="15.875" x="-109.74" y="-154.12" fill="#96cc37"/></g><rect width="2.646" height="7.938" x="-119.67" y="-134.28" fill="#ffb887"/><rect width="2.646" height="7.938" x="-114.37" y="-134.28" fill="#ffb887"/></g><g transform="matrix(1.3292 0 0 1.3292 -22.165 -46.021)"><g><path fill="#53d4a4" stroke-width=".265" d="m120.5 92.841c0 13.725-8.6234 23.495-20.9 29.309-3.6716 1.7389-6.9217-2.6758-11.114-1.6445-2.8752 0.70729-6.59 7.0479-9.6046 7.4223-3.4798 0.43218-4.9066-8.0488-8.449-8.0602-3.3766-0.0108-8.869 8.4682-12.185 8.0544-3.0407-0.37943-6.0833-7.3362-8.9812-8.0544-2.2822-0.5656-4.4553 5.1716-6.6002 4.3959-14.915-5.3942-25.99-15.869-25.99-31.423z"/><g stroke-width=".219"><rect width="27.781" height="15.875" x="23.609" y="76.966" fill="#ff8633"/><path fill="#ff5149" d="m51.365 76.966h27.781v15.875h-27.781z"/><rect width="27.781" height="15.875" x="37.5" y="61.091" fill="#96cc37"/></g><rect width="2.646" height="7.938" x="27.578" y="80.934" fill="#ffb887"/><rect width="2.646" height="7.938" x="32.869" y="80.934" fill="#ffb887"/><rect width="2.646" height="7.938" x="40.807" y="65.059" fill="#c1dc97"/><rect width="2.646" height="7.938" x="46.099" y="65.059" fill="#c1dc97"/><rect width="2.646" height="21.167" x="96.615" y="-42.924" fill="#2bac7c" transform="rotate(90)"/><rect width="1.323" height="55.564" x="-70.62" y="45.551" fill="#2bac7c" stroke-width=".168" transform="scale(-1,1)"/><path fill="#53d4a4" stroke-width=".122" d="m115.65 93.105v-6.8792c0-6.6146-19.844-6.6146-19.844 0v6.8792z"/></g><circle cx="-80.332" cy="87.975" r=".015" fill="#ffd2b3" stroke="#000" stroke-width=".265" transform="scale(-1,1)"/><g><path fill="#53d4a4" stroke-width=".239" d="m70.45 43.994c-0.79752-0.71826-3.323 1.114-2.631 1.9161 14.792 17.147 40.492 47.519 40.492 47.519l6.8405-4.982s-30.149-31.347-44.701-44.453z"/><rect width="27.781" height="15.875" x="-83.934" y="96.747" fill="#ff8633" stroke-width=".219" transform="scale(-1,1)"/><rect width="2.646" height="7.938" x="-80.627" y="100.72" fill="#ffb887" transform="scale(-1,1)"/><rect width="2.646" height="7.938" x="-75.335" y="100.72" fill="#ffb887" transform="scale(-1,1)"/><rect width="2.646" height="5.292" x="98.188" y="-90.794" fill="#2bac7c" transform="scale(1,-1)"/><rect width="2.646" height="21.167" x="101.64" y="-46.628" fill="#9ed3bb" transform="rotate(90)"/><rect width="2.646" height="21.167" x="101.64" y="-46.628" fill="#2bac7c" transform="rotate(90)"/><rect width="2.646" height="7.938" x="55.359" y="80.934" fill="#ff8b83"/><rect width="2.646" height="7.938" x="60.651" y="80.934" fill="#ff8b83"/></g><path fill="none" stroke="#65b5f9" stroke-width="6.591" d="m24.251 122.2c4.9436-4.9436 4.9436-4.9436 9.8872 0l0.0146 0.0145c4.9291 4.9743 4.9291 4.9743 9.8436 0.0145l0.0145-0.0145c4.9581-4.9581 4.9581-4.9581 9.9018-0.0145h1e-5c4.9436 4.9436 4.9436 4.9436 9.8873 0 4.9436-4.9436 4.9436-4.9436 9.8872 0l0.0145 0.0145c4.9291 4.9743 4.9291 4.9743 9.8436 0.0145l0.0146-0.0145c4.9582-4.9582 4.9582-4.9582 9.9018-0.0145h2e-3c4.9456 4.9436 4.9456 4.9436 9.8892 0l-0.15769 0.1577c4.7859-4.7859 4.7859-4.7859 9.7295 0.15769"/></g><g><rect width="2.646" height="7.938" x="-106.44" y="-150.16" fill="#c1dc97"/><rect width="2.646" height="7.938" x="-101.14" y="-150.16" fill="#c1dc97"/><rect width="2.646" height="21.167" x="-118.6" y="104.32" fill="#2bac7c" transform="rotate(90)"/><path fill="#53d4a4" stroke-width=".122" d="m-31.592-122.11v-6.8792c0-6.6146-19.844-6.6146-19.844 0v6.8792z"/></g><circle cx="66.911" cy="-127.24" r=".015" fill="#ffd2b3" stroke="#000" stroke-width=".265" transform="scale(-1,1)"/><g><rect width="2.646" height="5.292" x="-36.884" y="124.42" fill="#2bac7c" transform="scale(1,-1)"/><rect width="2.646" height="21.167" x="-113.57" y="100.62" fill="#9ed3bb" transform="rotate(90)"/><rect width="2.646" height="21.167" x="-113.57" y="100.62" fill="#2bac7c" transform="rotate(90)"/><rect width="2.646" height="7.938" x="-91.884" y="-134.28" fill="#ff8b83"/><rect width="2.646" height="7.938" x="-86.592" y="-134.28" fill="#ff8b83"/></g><path fill="none" stroke="#65b5f9" stroke-width="6.591" d="m-122.99-93.017c4.9436-4.9436 4.9436-4.9436 9.8872 0l0.0146 0.0145c4.9291 4.9743 4.9291 4.9743 9.8436 0.0145l0.0145-0.0145c4.9581-4.9581 4.9581-4.9581 9.9018-0.0145h1e-5c4.9436 4.9436 4.9436 4.9436 9.8873 0 4.9436-4.9436 4.9436-4.9436 9.8872 0l0.0145 0.0145c4.9291 4.9743 4.9291 4.9743 9.8436 0.0145l0.0146-0.0145c4.9582-4.9582 4.9582-4.9582 9.9018-0.0145h2e-3c4.9456 4.9436 4.9456 4.9436 9.8892 0l-0.15769 0.1577c4.7859-4.7859 4.7859-4.7859 9.7295 0.15769"/><rect width="15.102" height="9.124" x="-57.205" y="-156.68" fill="#53d4a4"/></svg>