<svg xmlns="http://www.w3.org/2000/svg" width="240" height="240" fill="none" viewBox="0 0 240 240"><g filter="url(#filter0_d_420_3)"><rect width="16" height="16" x="40" y="136" fill="#EC7E4B"/><rect width="16" height="16" x="168" y="168" fill="#EC7E4B"/><rect width="16" height="16" x="120" y="168" fill="#EC7E4B"/><rect width="16" height="16" x="24" y="120" fill="#EC7E4B"/><path fill="#DDD" fill-rule="evenodd" d="M136 56H120V120H136H152V72H136V56Z" clip-rule="evenodd"/><path fill="#fff" fill-rule="evenodd" d="M200 56H184V72H168V88H152V104H104V120H72V104H40V136H72H120V152H136V168H184V152H200V136H216V120H200H184V104H200V72V56Z" clip-rule="evenodd"/><rect width="16" height="16" x="56" y="120" fill="#000"/></g><defs><filter id="filter0_d_420_3" width="216" height="152" x="16" y="48" color-interpolation-filters="sRGB" filterUnits="userSpaceOnUse"><feFlood flood-opacity="0" result="BackgroundImageFix"/><feColorMatrix in="SourceAlpha" result="hardAlpha" type="matrix" values="0 0 0 0 0 0 0 0 0 0 0 0 0 0 0 0 0 0 127 0"/><feOffset dx="4" dy="4"/><feGaussianBlur stdDeviation="6"/><feComposite in2="hardAlpha" operator="out"/><feColorMatrix type="matrix" values="0 0 0 0 0 0 0 0 0 0 0 0 0 0 0 0 0 0 0.15 0"/><feBlend in2="BackgroundImageFix" mode="normal" result="effect1_dropShadow_420_3"/><feBlend in="SourceGraphic" in2="effect1_dropShadow_420_3" mode="normal" result="shape"/></filter></defs></svg>